<mxfile host="app.diagrams.net" modified="2023-08-25T20:27:30.864Z" agent="Mozilla/5.0 (Windows NT 10.0; Win64; x64) AppleWebKit/537.36 (KHTML, like Gecko) Chrome/115.0.0.0 Safari/537.36" version="21.6.9" etag="ra0OBJpVGrogcNIIDZiL" type="github">
  <diagram name="Page-1" id="qHOjPxOKH453D4GF8TEh">
    <mxGraphModel>
      <root>
        <mxCell id="0" />
        <mxCell id="1" parent="0" />
      </root>
    </mxGraphModel>
  </diagram>
</mxfile>
